<?xml version="1.0" encoding="UTF-8" standalone="no"?><!DOCTYPE svg PUBLIC "-//W3C//DTD SVG 1.1//EN" "http://www.w3.org/Graphics/SVG/1.1/DTD/svg11.dtd"><svg width="100%" height="100%" viewBox="0 0 826 169" version="1.1" xmlns="http://www.w3.org/2000/svg" xmlns:xlink="http://www.w3.org/1999/xlink" xml:space="preserve" xmlns:serif="http://www.serif.com/" style="fill-rule:evenodd;clip-rule:evenodd;stroke-linejoin:round;stroke-miterlimit:1.41421;"><g id="logo-horizontal"><circle cx="84.213" cy="84.286" r="83.964" style="fill:#00293c;"/><clipPath id="_clip1"><circle cx="84.213" cy="84.286" r="83.964"/></clipPath><g clip-path="url(#_clip1)"><rect x="0.249" y="0.323" width="167.927" height="167.927" style="fill:url(#_Linear2);"/><g id="Layer1"><path d="M101.522,-13.055c-10.467,7.515 -16.907,12.76 -25.763,32.083c5.547,0.442 9.399,1.002 13.591,1.49c0.509,2.705 2.226,8.409 5.075,14.282c2.887,5.954 0.07,10.351 2.054,13.194c1.723,1.843 5.473,-3.059 7.201,-1.398c1.132,3.168 1.016,4.361 2.349,5.033c0.989,0.499 3.482,0.763 4.148,1.07c20.864,9.595 15.175,-21.234 30.516,-16.943c8.352,2.335 5.506,-24.312 -6.998,-33.672c-12.503,-9.36 -21.707,-22.653 -32.173,-15.139Z" style="fill:#f1f3ce;"/><path d="M46.774,61.421c7.99,-1.493 9.678,-6.588 12.633,-8.644c2.821,-1.963 4.285,-5.153 2.057,-8.824c-3.099,-2.053 -8.117,-3.588 -13.203,-4.844c-8.203,3.524 -14.92,11.55 -16.783,15.242c-2.783,5.514 2.976,15.404 2.511,21.82c-0.465,6.416 -2.394,30.495 6.067,44.811c8.461,14.316 14.77,11.758 23.933,9.186c9.162,-2.572 13.48,-2.724 21.039,-6.623c7.559,-3.899 17.648,-9.616 20.535,-16.031c9.576,4.245 27.772,10.175 44.29,10.197c-8.2,-11.817 -23.227,-11.958 -34.606,-57.476c-7.295,0.9 -9.291,-0.437 -21.11,5.308c-7.482,3.637 -11.279,11.208 -13.563,15.094c-6.679,1.879 -15.349,6.162 -18.314,15.261c-0.073,-9.424 -6.625,-16.197 -10.078,-20.918c-3.453,-4.721 -4.1,-5.909 -5.408,-13.559Z" style="fill:#f1f3ce;"/><path d="M97.552,98.702c0.572,8.723 6.592,23.871 22.991,31.224c16.4,7.352 14.046,23.161 14.557,26.275c0.511,3.114 44.363,-21.132 44.363,-21.132c0,0 -11.712,-14.036 -1.718,-42.255c7.044,-19.89 14.188,-31.722 11.819,-39.03c-3.212,-9.908 -17.513,-17.613 -22.177,-13.582c-4.664,4.032 -18.871,-4.357 -23.62,-1.093c-4.748,3.265 -9.445,3.942 -10.642,8.4c-3.597,13.391 -19.601,7.573 -25.311,16.071c-5.71,8.498 -10.835,26.398 -10.262,35.122Z" style="fill:#f1f3ce;"/><path d="M125.903,49.026c2.137,-1.395 6.766,-0.829 6.181,1.323c-0.852,3.134 21.84,-10.856 20.217,-11.176c-2.574,-0.509 -7.635,-1.773 -7.155,-7.555c-1.488,-5.783 -24.245,7.151 -19.243,17.408Z" style="fill:#f1f3ce;"/></g><g id="Layer2"><path d="M57.589,-31.946c68.768,0 124.598,55.83 124.598,124.598c0,68.767 -55.83,124.598 -124.598,124.598c-68.768,0 -124.598,-55.831 -124.598,-124.598c0,-68.768 55.83,-124.598 124.598,-124.598Zm109.024,82.725c-16.843,13.164 -22.206,9.462 -48.743,7.382c-0.575,-0.293 -6.612,1.867 -6.86,2.438c5.636,9.367 8.878,20.334 8.878,32.053c0,34.384 -27.915,62.299 -62.299,62.299c-34.384,0 -62.299,-27.915 -62.299,-62.299c0,-175.323 205.621,-68.682 171.323,-41.873Z" style="fill:#f62a00;"/><clipPath id="_clip3"><path d="M57.589,-31.946c68.768,0 124.598,55.83 124.598,124.598c0,68.767 -55.83,124.598 -124.598,124.598c-68.768,0 -124.598,-55.831 -124.598,-124.598c0,-68.768 55.83,-124.598 124.598,-124.598Zm109.024,82.725c-16.843,13.164 -22.206,9.462 -48.743,7.382c-0.575,-0.293 -6.612,1.867 -6.86,2.438c5.636,9.367 8.878,20.334 8.878,32.053c0,34.384 -27.915,62.299 -62.299,62.299c-34.384,0 -62.299,-27.915 -62.299,-62.299c0,-175.323 205.621,-68.682 171.323,-41.873Z"/></clipPath><g clip-path="url(#_clip3)"><rect x="0.249" y="0.323" width="167.927" height="167.927" style="fill:url(#_Linear4);"/></g></g></g><g><path d="M282.906,108.607l-46.064,0l-10.453,28.503l-8.99,0l38.398,-101.466l8.154,0l38.398,101.466l-8.92,0l-10.523,-28.503Zm-43.416,-7.247l40.698,0l-20.349,-55.263l-20.349,55.263Z" style="fill:url(#_Linear5);fill-rule:nonzero;"/><path d="M320.815,98.712c0,-11.708 2.613,-21.035 7.84,-27.98c5.226,-6.946 12.323,-10.419 21.29,-10.419c10.174,0 17.933,4.019 23.276,12.056l0,-42.301l8.292,0l0,107.042l-7.805,0l-0.348,-10.035c-5.343,7.619 -13.194,11.429 -23.555,11.429c-8.688,0 -15.691,-3.496 -21.011,-10.488c-5.319,-6.993 -7.979,-16.435 -7.979,-28.329l0,-0.975Zm8.432,1.463c0,9.617 1.928,17.201 5.784,22.753c3.856,5.552 9.292,8.328 16.307,8.328c10.268,0 17.562,-4.53 21.883,-13.589l0,-35.402c-4.321,-9.803 -11.569,-14.704 -21.743,-14.704c-7.016,0 -12.474,2.753 -16.377,8.258c-3.903,5.505 -5.854,13.624 -5.854,24.356Z" style="fill:url(#_Linear6);fill-rule:nonzero;"/><path d="M407.715,98.293c0,-7.247 1.405,-13.775 4.216,-19.582c2.811,-5.807 6.783,-10.326 11.917,-13.554c5.133,-3.229 10.952,-4.844 17.457,-4.844c10.035,0 18.165,3.519 24.39,10.558c6.226,7.039 9.339,16.365 9.339,27.98l0,1.742c0,7.294 -1.406,13.857 -4.216,19.687c-2.811,5.831 -6.772,10.326 -11.882,13.485c-5.111,3.159 -10.941,4.739 -17.492,4.739c-9.989,0 -18.107,-3.52 -24.356,-10.558c-6.249,-7.039 -9.373,-16.365 -9.373,-27.98l0,-1.673Zm8.362,2.3c0,9.013 2.335,16.412 7.004,22.196c4.669,5.784 10.79,8.676 18.363,8.676c7.526,0 13.624,-2.892 18.293,-8.676c4.669,-5.784 7.004,-13.415 7.004,-22.893l0,-1.603c0,-5.76 -1.069,-11.034 -3.206,-15.819c-2.137,-4.785 -5.134,-8.49 -8.99,-11.115c-3.856,-2.625 -8.269,-3.938 -13.24,-3.938c-7.434,0 -13.497,2.916 -18.189,8.746c-4.693,5.831 -7.039,13.462 -7.039,22.893l0,1.533Z" style="fill:url(#_Linear7);fill-rule:nonzero;"/><path d="M509.04,61.707l0.279,12.892c2.834,-4.646 6.365,-8.188 10.592,-10.627c4.228,-2.439 8.897,-3.659 14.008,-3.659c8.084,0 14.1,2.277 18.049,6.83c3.949,4.553 5.947,11.382 5.993,20.488l0,49.479l-8.293,0l0,-49.549c-0.046,-6.736 -1.475,-11.754 -4.285,-15.052c-2.811,-3.299 -7.306,-4.948 -13.485,-4.948c-5.157,0 -9.722,1.614 -13.694,4.843c-3.972,3.229 -6.911,7.585 -8.816,13.067l0,51.639l-8.292,0l0,-75.403l7.944,0Z" style="fill:url(#_Linear8);fill-rule:nonzero;"/><path d="M597.682,137.11l-8.363,0l0,-75.403l8.363,0l0,75.403Zm-9.826,-97.181c0,-1.57 0.511,-2.897 1.533,-3.982c1.022,-1.085 2.416,-1.628 4.181,-1.628c1.766,0 3.171,0.543 4.217,1.628c1.045,1.085 1.568,2.412 1.568,3.982c0,1.57 -0.523,2.886 -1.568,3.948c-1.046,1.062 -2.451,1.593 -4.217,1.593c-1.765,0 -3.159,-0.531 -4.181,-1.593c-1.022,-1.062 -1.533,-2.378 -1.533,-3.948Z" style="fill:url(#_Linear9);fill-rule:nonzero;"/><path d="M674.338,117.946c0,-4.135 -1.661,-7.457 -4.983,-9.966c-3.322,-2.509 -8.328,-4.472 -15.018,-5.889c-6.69,-1.417 -11.882,-3.043 -15.575,-4.878c-3.694,-1.835 -6.435,-4.077 -8.223,-6.725c-1.789,-2.648 -2.684,-5.854 -2.684,-9.617c0,-5.946 2.486,-10.859 7.457,-14.739c4.971,-3.879 11.336,-5.819 19.095,-5.819c8.409,0 15.157,2.079 20.244,6.237c5.088,4.158 7.631,9.583 7.631,16.273l-8.362,0c0,-4.414 -1.847,-8.084 -5.541,-11.011c-3.693,-2.927 -8.351,-4.391 -13.972,-4.391c-5.482,0 -9.884,1.22 -13.206,3.659c-3.322,2.439 -4.983,5.61 -4.983,9.513c0,3.763 1.382,6.678 4.147,8.745c2.764,2.068 7.805,3.961 15.122,5.68c7.317,1.719 12.799,3.554 16.446,5.505c3.647,1.952 6.354,4.298 8.119,7.039c1.766,2.741 2.648,6.063 2.648,9.965c0,6.365 -2.567,11.453 -7.7,15.262c-5.134,3.81 -11.836,5.715 -20.105,5.715c-8.781,0 -15.901,-2.126 -21.36,-6.377c-5.459,-4.251 -8.188,-9.628 -8.188,-16.133l8.362,0c0.326,4.878 2.381,8.677 6.168,11.394c3.786,2.718 8.792,4.077 15.018,4.077c5.807,0 10.499,-1.277 14.077,-3.833c3.577,-2.555 5.366,-5.784 5.366,-9.686Z" style="fill:url(#_Linear10);fill-rule:nonzero;"/><path d="M782.144,35.644l0,69.27c-0.046,6.829 -1.556,12.776 -4.53,17.84c-2.973,5.064 -7.166,8.955 -12.578,11.673c-5.413,2.718 -11.627,4.077 -18.642,4.077c-10.686,0 -19.246,-2.916 -25.68,-8.746c-6.435,-5.831 -9.768,-13.903 -10.001,-24.217l0,-69.897l8.502,0l0,68.643c0,8.548 2.439,15.18 7.318,19.896c4.878,4.715 11.498,7.073 19.861,7.073c8.363,0 14.971,-2.369 19.826,-7.108c4.855,-4.739 7.283,-11.336 7.283,-19.792l0,-68.712l8.641,0Z" style="fill:url(#_Linear11);fill-rule:nonzero;"/><rect x="816.778" y="35.644" width="8.572" height="101.466" style="fill:url(#_Linear12);fill-rule:nonzero;"/></g></g><defs><linearGradient id="_Linear2" x1="0" y1="0" x2="1" y2="0" gradientUnits="userSpaceOnUse" gradientTransform="matrix(167.927,88.9047,-88.9047,167.927,0.249153,37.7571)"><stop offset="0" style="stop-color:#00293c;stop-opacity:1"/><stop offset="1" style="stop-color:#005d88;stop-opacity:1"/></linearGradient><linearGradient id="_Linear4" x1="0" y1="0" x2="1" y2="0" gradientUnits="userSpaceOnUse" gradientTransform="matrix(-46.3529,-48.7744,48.7744,-46.3529,146.989,146.41)"><stop offset="0" style="stop-color:#af1919;stop-opacity:1"/><stop offset="0.5" style="stop-color:#e42606;stop-opacity:1"/><stop offset="1" style="stop-color:#f62a00;stop-opacity:1"/></linearGradient><linearGradient id="_Linear5" x1="0" y1="0" x2="1" y2="0" gradientUnits="userSpaceOnUse" gradientTransform="matrix(573.983,0,0,108.435,217.399,84.2861)"><stop offset="0" style="stop-color:#00293c;stop-opacity:1"/><stop offset="0.83" style="stop-color:#005e8a;stop-opacity:1"/><stop offset="0.84" style="stop-color:#f62a00;stop-opacity:1"/><stop offset="1" style="stop-color:#af1919;stop-opacity:1"/></linearGradient><linearGradient id="_Linear6" x1="0" y1="0" x2="1" y2="0" gradientUnits="userSpaceOnUse" gradientTransform="matrix(573.983,0,0,108.435,217.399,84.2861)"><stop offset="0" style="stop-color:#00293c;stop-opacity:1"/><stop offset="0.83" style="stop-color:#005e8a;stop-opacity:1"/><stop offset="0.84" style="stop-color:#f62a00;stop-opacity:1"/><stop offset="1" style="stop-color:#af1919;stop-opacity:1"/></linearGradient><linearGradient id="_Linear7" x1="0" y1="0" x2="1" y2="0" gradientUnits="userSpaceOnUse" gradientTransform="matrix(573.983,0,0,108.435,217.399,84.2861)"><stop offset="0" style="stop-color:#00293c;stop-opacity:1"/><stop offset="0.83" style="stop-color:#005e8a;stop-opacity:1"/><stop offset="0.84" style="stop-color:#f62a00;stop-opacity:1"/><stop offset="1" style="stop-color:#af1919;stop-opacity:1"/></linearGradient><linearGradient id="_Linear8" x1="0" y1="0" x2="1" y2="0" gradientUnits="userSpaceOnUse" gradientTransform="matrix(573.983,0,0,108.435,217.399,84.2861)"><stop offset="0" style="stop-color:#00293c;stop-opacity:1"/><stop offset="0.83" style="stop-color:#005e8a;stop-opacity:1"/><stop offset="0.84" style="stop-color:#f62a00;stop-opacity:1"/><stop offset="1" style="stop-color:#af1919;stop-opacity:1"/></linearGradient><linearGradient id="_Linear9" x1="0" y1="0" x2="1" y2="0" gradientUnits="userSpaceOnUse" gradientTransform="matrix(573.983,0,0,108.435,217.399,84.2861)"><stop offset="0" style="stop-color:#00293c;stop-opacity:1"/><stop offset="0.83" style="stop-color:#005e8a;stop-opacity:1"/><stop offset="0.84" style="stop-color:#f62a00;stop-opacity:1"/><stop offset="1" style="stop-color:#af1919;stop-opacity:1"/></linearGradient><linearGradient id="_Linear10" x1="0" y1="0" x2="1" y2="0" gradientUnits="userSpaceOnUse" gradientTransform="matrix(573.983,0,0,108.435,217.399,84.2861)"><stop offset="0" style="stop-color:#00293c;stop-opacity:1"/><stop offset="0.83" style="stop-color:#005e8a;stop-opacity:1"/><stop offset="0.84" style="stop-color:#f62a00;stop-opacity:1"/><stop offset="1" style="stop-color:#af1919;stop-opacity:1"/></linearGradient><linearGradient id="_Linear11" x1="0" y1="0" x2="1" y2="0" gradientUnits="userSpaceOnUse" gradientTransform="matrix(573.983,0,0,108.435,217.399,84.2861)"><stop offset="0" style="stop-color:#00293c;stop-opacity:1"/><stop offset="0.83" style="stop-color:#005e8a;stop-opacity:1"/><stop offset="0.84" style="stop-color:#f62a00;stop-opacity:1"/><stop offset="1" style="stop-color:#af1919;stop-opacity:1"/></linearGradient><linearGradient id="_Linear12" x1="0" y1="0" x2="1" y2="0" gradientUnits="userSpaceOnUse" gradientTransform="matrix(573.983,0,0,108.435,217.399,84.2861)"><stop offset="0" style="stop-color:#00293c;stop-opacity:1"/><stop offset="0.83" style="stop-color:#005e8a;stop-opacity:1"/><stop offset="0.84" style="stop-color:#f62a00;stop-opacity:1"/><stop offset="1" style="stop-color:#af1919;stop-opacity:1"/></linearGradient></defs></svg>