<?xml version="1.0" encoding="UTF-8" standalone="no"?><!DOCTYPE svg PUBLIC "-//W3C//DTD SVG 1.1//EN" "http://www.w3.org/Graphics/SVG/1.1/DTD/svg11.dtd"><svg width="100%" height="100%" viewBox="0 0 826 169" version="1.1" xmlns="http://www.w3.org/2000/svg" xmlns:xlink="http://www.w3.org/1999/xlink" xml:space="preserve" xmlns:serif="http://www.serif.com/" style="fill-rule:evenodd;clip-rule:evenodd;stroke-linejoin:round;stroke-miterlimit:1.41421;"><g id="logo-horizontal"><circle cx="84.213" cy="84.286" r="83.964" style="fill:#00293c;"/><clipPath id="_clip1"><circle cx="84.213" cy="84.286" r="83.964"/></clipPath><g clip-path="url(#_clip1)"><rect x="0.249" y="0.323" width="167.927" height="167.927" style="fill:url(#_Linear2);"/><g id="Layer1"><path d="M101.522,-13.055c-10.467,7.515 -16.907,12.76 -25.763,32.083c5.547,0.442 9.399,1.002 13.591,1.49c0.509,2.705 2.226,8.409 5.075,14.282c2.887,5.954 0.07,10.351 2.054,13.194c1.723,1.843 5.473,-3.059 7.201,-1.398c1.132,3.168 1.016,4.361 2.349,5.033c0.989,0.499 3.482,0.763 4.148,1.07c20.864,9.595 15.175,-21.234 30.516,-16.943c8.352,2.335 5.506,-24.312 -6.998,-33.672c-12.503,-9.36 -21.707,-22.653 -32.173,-15.139Z" style="fill:#f1f3ce;"/><path d="M46.774,61.421c7.99,-1.493 9.678,-6.588 12.633,-8.644c2.821,-1.963 4.285,-5.153 2.057,-8.824c-3.099,-2.053 -8.117,-3.588 -13.203,-4.844c-8.203,3.524 -14.92,11.55 -16.783,15.242c-2.783,5.514 2.976,15.404 2.511,21.82c-0.465,6.416 -2.394,30.495 6.067,44.811c8.461,14.316 14.77,11.758 23.933,9.186c9.162,-2.572 13.48,-2.724 21.039,-6.623c7.559,-3.899 17.648,-9.616 20.535,-16.031c9.576,4.245 27.772,10.175 44.29,10.197c-8.2,-11.817 -23.227,-11.958 -34.606,-57.476c-7.295,0.9 -9.291,-0.437 -21.11,5.308c-7.482,3.637 -11.279,11.208 -13.563,15.094c-6.679,1.879 -15.349,6.162 -18.314,15.261c-0.073,-9.424 -6.625,-16.197 -10.078,-20.918c-3.453,-4.721 -4.1,-5.909 -5.408,-13.559Z" style="fill:#f1f3ce;"/><path d="M97.552,98.702c0.572,8.723 6.592,23.871 22.991,31.224c16.4,7.352 14.046,23.161 14.557,26.275c0.511,3.114 44.363,-21.132 44.363,-21.132c0,0 -11.712,-14.036 -1.718,-42.255c7.044,-19.89 14.188,-31.722 11.819,-39.03c-3.212,-9.908 -17.513,-17.613 -22.177,-13.582c-4.664,4.032 -18.871,-4.357 -23.62,-1.093c-4.748,3.265 -9.445,3.942 -10.642,8.4c-3.597,13.391 -19.601,7.573 -25.311,16.071c-5.71,8.498 -10.835,26.398 -10.262,35.122Z" style="fill:#f1f3ce;"/><path d="M125.903,49.026c2.137,-1.395 6.766,-0.829 6.181,1.323c-0.852,3.134 21.84,-10.856 20.217,-11.176c-2.574,-0.509 -7.635,-1.773 -7.155,-7.555c-1.488,-5.783 -24.245,7.151 -19.243,17.408Z" style="fill:#f1f3ce;"/></g><g id="Layer2"><path d="M57.589,-31.946c68.768,0 124.598,55.83 124.598,124.598c0,68.767 -55.83,124.598 -124.598,124.598c-68.768,0 -124.598,-55.831 -124.598,-124.598c0,-68.768 55.83,-124.598 124.598,-124.598Zm109.024,82.725c-16.843,13.164 -22.206,9.462 -48.743,7.382c-0.575,-0.293 -6.612,1.867 -6.86,2.438c5.636,9.367 8.878,20.334 8.878,32.053c0,34.384 -27.915,62.299 -62.299,62.299c-34.384,0 -62.299,-27.915 -62.299,-62.299c0,-175.323 205.621,-68.682 171.323,-41.873Z" style="fill:#f62a00;"/><clipPath id="_clip3"><path d="M57.589,-31.946c68.768,0 124.598,55.83 124.598,124.598c0,68.767 -55.83,124.598 -124.598,124.598c-68.768,0 -124.598,-55.831 -124.598,-124.598c0,-68.768 55.83,-124.598 124.598,-124.598Zm109.024,82.725c-16.843,13.164 -22.206,9.462 -48.743,7.382c-0.575,-0.293 -6.612,1.867 -6.86,2.438c5.636,9.367 8.878,20.334 8.878,32.053c0,34.384 -27.915,62.299 -62.299,62.299c-34.384,0 -62.299,-27.915 -62.299,-62.299c0,-175.323 205.621,-68.682 171.323,-41.873Z"/></clipPath><g clip-path="url(#_clip3)"><rect x="0.249" y="0.323" width="167.927" height="167.927" style="fill:url(#_Linear4);"/></g></g></g><text x="215.308px" y="137.11px" style="font-family:'Roboto-Light', 'Roboto';font-weight:300;font-size:142.722px;fill:url(#_Linear5);">A<tspan x="313.288px 401.443px 490.224px 577.472px 618.308px 699.424px 802.073px " y="137.11px 137.11px 137.11px 137.11px 137.11px 137.11px 137.11px ">donisUI</tspan></text></g><defs><linearGradient id="_Linear2" x1="0" y1="0" x2="1" y2="0" gradientUnits="userSpaceOnUse" gradientTransform="matrix(167.927,88.9047,-88.9047,167.927,0.249153,37.7571)"><stop offset="0" style="stop-color:#00293c;stop-opacity:1"/><stop offset="1" style="stop-color:#005d88;stop-opacity:1"/></linearGradient><linearGradient id="_Linear4" x1="0" y1="0" x2="1" y2="0" gradientUnits="userSpaceOnUse" gradientTransform="matrix(-46.3529,-48.7744,48.7744,-46.3529,146.989,146.41)"><stop offset="0" style="stop-color:#af1919;stop-opacity:1"/><stop offset="0.5" style="stop-color:#e42606;stop-opacity:1"/><stop offset="1" style="stop-color:#f62a00;stop-opacity:1"/></linearGradient><linearGradient id="_Linear5" x1="0" y1="0" x2="1" y2="0" gradientUnits="userSpaceOnUse" gradientTransform="matrix(573.983,0,0,108.435,217.399,84.2861)"><stop offset="0" style="stop-color:#00293c;stop-opacity:1"/><stop offset="0.83" style="stop-color:#005e8a;stop-opacity:1"/><stop offset="0.84" style="stop-color:#f62a00;stop-opacity:1"/><stop offset="1" style="stop-color:#af1919;stop-opacity:1"/></linearGradient></defs></svg>