<?xml version="1.0" encoding="UTF-8" standalone="no"?><!DOCTYPE svg PUBLIC "-//W3C//DTD SVG 1.1//EN" "http://www.w3.org/Graphics/SVG/1.1/DTD/svg11.dtd"><svg width="100%" height="100%" viewBox="0 0 144 144" version="1.1" xmlns="http://www.w3.org/2000/svg" xmlns:xlink="http://www.w3.org/1999/xlink" xml:space="preserve" xmlns:serif="http://www.serif.com/" style="fill-rule:evenodd;clip-rule:evenodd;stroke-linejoin:round;stroke-miterlimit:2;"><circle id="favicon--original-" serif:id="favicon (original)" cx="72.213" cy="72.139" r="71.278" style="fill:#00293c;"/><clipPath id="_clip1"><circle cx="72.213" cy="72.139" r="71.278"/></clipPath><g clip-path="url(#_clip1)"><rect x="0.934" y="0.86" width="142.557" height="142.557" style="fill:url(#_Linear2);"/><g id="Layer1"><path d="M86.907,-10.496c-8.886,6.379 -14.353,10.832 -21.871,27.236c4.709,0.375 7.979,0.851 11.537,1.264c0.433,2.297 1.891,7.139 4.309,12.124c2.451,5.056 0.059,8.788 1.744,11.201c1.463,1.565 4.646,-2.596 6.113,-1.186c0.96,2.689 0.863,3.702 1.994,4.273c0.839,0.423 2.956,0.647 3.522,0.907c17.711,8.146 12.882,-18.025 25.905,-14.383c7.09,1.983 4.674,-20.638 -5.94,-28.584c-10.615,-7.947 -18.428,-19.231 -27.313,-12.852Z" style="fill:#f1f3ce;"/><path d="M40.431,52.728c6.782,-1.267 8.215,-5.593 10.724,-7.338c2.395,-1.667 3.638,-4.374 1.746,-7.491c-2.631,-1.742 -6.891,-3.046 -11.208,-4.112c-6.964,2.992 -12.666,9.805 -14.248,12.939c-2.363,4.681 2.527,13.077 2.132,18.524c-0.395,5.446 -2.033,25.887 5.15,38.04c7.183,12.153 12.539,9.982 20.317,7.799c7.778,-2.183 11.444,-2.313 17.861,-5.623c6.417,-3.309 14.982,-8.163 17.432,-13.609c8.129,3.604 23.577,8.638 37.599,8.657c-6.961,-10.032 -19.718,-10.152 -29.377,-48.793c-6.193,0.764 -7.888,-0.371 -17.922,4.506c-6.351,3.088 -9.575,9.515 -11.514,12.814c-5.67,1.595 -13.029,5.231 -15.546,12.955c-0.062,-8 -5.625,-13.75 -8.556,-17.757c-2.931,-4.008 -3.48,-5.016 -4.59,-11.511Z" style="fill:#f1f3ce;"/><path d="M83.536,84.376c0.486,7.406 5.597,20.265 19.518,26.507c13.922,6.242 11.924,19.663 12.358,22.306c0.434,2.643 37.66,-17.94 37.66,-17.94c0,0 -9.942,-11.915 -1.458,-35.871c5.98,-16.885 12.044,-26.929 10.033,-33.133c-2.726,-8.411 -14.866,-14.953 -18.826,-11.53c-3.959,3.423 -16.02,-3.699 -20.051,-0.928c-4.031,2.771 -8.018,3.346 -9.035,7.131c-3.053,11.368 -16.639,6.429 -21.487,13.643c-4.847,7.214 -9.197,22.41 -8.712,29.815Z" style="fill:#f1f3ce;"/><path d="M107.604,42.205c1.815,-1.184 5.744,-0.703 5.248,1.123c-0.724,2.661 18.54,-9.215 17.162,-9.487c-2.185,-0.432 -6.481,-1.505 -6.074,-6.414c-1.263,-4.908 -20.582,6.071 -16.336,14.778Z" style="fill:#f1f3ce;"/></g><g id="Layer2"><path d="M49.611,-26.534c58.379,0 105.774,47.396 105.774,105.774c0,58.379 -47.395,105.775 -105.774,105.775c-58.378,0 -105.774,-47.396 -105.774,-105.775c0,-58.378 47.396,-105.774 105.774,-105.774Zm92.553,70.227c-14.298,11.176 -18.851,8.033 -41.379,6.268c-0.488,-0.249 -5.613,1.584 -5.824,2.069c4.785,7.952 7.537,17.262 7.537,27.21c0,29.19 -23.697,52.887 -52.887,52.887c-29.189,0 -52.887,-23.697 -52.887,-52.887c0,-148.835 174.556,-58.305 145.44,-35.547Z" style="fill:#f62a00;"/><clipPath id="_clip3"><path d="M49.611,-26.534c58.379,0 105.774,47.396 105.774,105.774c0,58.379 -47.395,105.775 -105.774,105.775c-58.378,0 -105.774,-47.396 -105.774,-105.775c0,-58.378 47.396,-105.774 105.774,-105.774Zm92.553,70.227c-14.298,11.176 -18.851,8.033 -41.379,6.268c-0.488,-0.249 -5.613,1.584 -5.824,2.069c4.785,7.952 7.537,17.262 7.537,27.21c0,29.19 -23.697,52.887 -52.887,52.887c-29.189,0 -52.887,-23.697 -52.887,-52.887c0,-148.835 174.556,-58.305 145.44,-35.547Z"/></clipPath><g clip-path="url(#_clip3)"><rect x="0.934" y="0.86" width="142.557" height="142.557" style="fill:url(#_Linear4);"/></g></g></g><defs><linearGradient id="_Linear2" x1="0" y1="0" x2="1" y2="0" gradientUnits="userSpaceOnUse" gradientTransform="matrix(142.557,75.473,-75.473,142.557,0.934304,32.6392)"><stop offset="0" style="stop-color:#00293c;stop-opacity:1"/><stop offset="1" style="stop-color:#005d88;stop-opacity:1"/></linearGradient><linearGradient id="_Linear4" x1="0" y1="0" x2="1" y2="0" gradientUnits="userSpaceOnUse" gradientTransform="matrix(-39.35,-41.4056,41.4056,-39.35,125.504,124.877)"><stop offset="0" style="stop-color:#af1919;stop-opacity:1"/><stop offset="0.5" style="stop-color:#e42606;stop-opacity:1"/><stop offset="1" style="stop-color:#f62a00;stop-opacity:1"/></linearGradient></defs></svg>